HIERARCHY
ROOT RootJoint
{
    OFFSET   0.000000   0.000000   0.000000
    CHANNELS 6 Xposition Yposition Zposition Xrotation Yrotation Zrotation
    JOINT pelvis_lowerback
    {
        OFFSET   0.000000   0.093605   0.000000
        CHANNELS 3 Xrotation Yrotation Zrotation
        JOINT lowerback_torso
        {
            OFFSET   0.000000   0.100000   0.000000
            CHANNELS 3 Xrotation Yrotation Zrotation
            JOINT torso_head
            {
                OFFSET   0.000000   0.282350   0.000000
                CHANNELS 3 Xrotation Yrotation Zrotation
                End Site
                {
                    OFFSET   0.000000   0.192650   0.000000
                }
            }
            JOINT rTorso_Clavicle
            {
                OFFSET  -0.001000   0.157500   0.000000
                CHANNELS 3 Xrotation Yrotation Zrotation
                JOINT rShoulder
                {
                    OFFSET  -0.117647   0.000000   0.000000
                    CHANNELS 3 Xrotation Yrotation Zrotation
                    JOINT rElbow
                    {
                        OFFSET  -0.245000   0.000000   0.000000
                        CHANNELS 3 Xrotation Yrotation Zrotation
                        JOINT rWrist
                        {
                            OFFSET  -0.240000   0.000000   0.000000
                            CHANNELS 3 Xrotation Yrotation Zrotation
                            End Site
                            {
                                OFFSET  -0.116353  -0.002500   0.000000
                            }
                        }
                    }
                }
            }
            JOINT lTorso_Clavicle
            {
                OFFSET   0.001000   0.157500   0.000000
                CHANNELS 3 Xrotation Yrotation Zrotation
                JOINT lShoulder
                {
                    OFFSET   0.117647   0.000000   0.000000
                    CHANNELS 3 Xrotation Yrotation Zrotation
                    JOINT lElbow
                    {
                        OFFSET   0.245000   0.000000   0.000000
                        CHANNELS 3 Xrotation Yrotation Zrotation
                        JOINT lWrist
                        {
                            OFFSET   0.240000   0.000000   0.000000
                            CHANNELS 3 Xrotation Yrotation Zrotation
                            End Site
                            {
                                OFFSET   0.116353  -0.002500   0.000000
                            }
                        }
                    }
                }
            }
        }
    }
    JOINT rHip
    {
        OFFSET  -0.100000  -0.051395   0.000000
        CHANNELS 3 Xrotation Yrotation Zrotation
        JOINT rKnee
        {
            OFFSET   0.000000  -0.410000   0.000000
            CHANNELS 3 Xrotation Yrotation Zrotation
            JOINT rAnkle
            {
                OFFSET   0.000000  -0.390000   0.000000
                CHANNELS 3 Xrotation Yrotation Zrotation
                JOINT rToeJoint
                {
                    OFFSET   0.000000  -0.050000   0.130000
                    CHANNELS 3 Xrotation Yrotation Zrotation
                    End Site
                    {
                        OFFSET  -0.010000   0.002000   0.060000
                    }
                }
            }
        }
    }
    JOINT lHip
    {
        OFFSET   0.100000  -0.051395   0.000000
        CHANNELS 3 Xrotation Yrotation Zrotation
        JOINT lKnee
        {
            OFFSET   0.000000  -0.410000   0.000000
            CHANNELS 3 Xrotation Yrotation Zrotation
            JOINT lAnkle
            {
                OFFSET   0.000000  -0.390000   0.000000
                CHANNELS 3 Xrotation Yrotation Zrotation
                JOINT lToeJoint
                {
                    OFFSET   0.000000  -0.050000   0.130000
                    CHANNELS 3 Xrotation Yrotation Zrotation
                    End Site
                    {
                        OFFSET   0.010000   0.002000   0.060000
                    }
                }
            }
        }
    }
}
MOTION
Frames: 11
Frame Time:   0.008333
 -2.376719   0.925631   3.975860   0.000000   0.000000   0.000000   0.000000   0.000000   0.000000   0.000000   0.000000   0.000000   0.000000   0.000000   0.000000   0.000000   0.000000   0.000000   0.000000   0.000000   0.000000   0.000000   0.000000   0.000000   0.000000   0.000000   0.000000   0.000000   0.000000   0.000000   0.000000   0.000000   0.000000   0.000000   0.000000   0.000000   0.000000   0.000000   0.000000   0.000000   0.000000   0.000000   0.000000   0.000000   0.000000   0.000000   0.000000   0.000000   0.000000   0.000000   0.000000   0.000000   0.000000   0.000000   0.000000   0.000000   0.000000   0.000000   0.000000   0.000000   0.000000   0.000000   0.000000
 -2.376906   0.925869   3.974477   0.105148   0.243507  -0.289575   0.218216  -0.056869   0.238339   0.129834  -0.464500   0.095039  -0.449127  -0.347609   0.289293   0.132957  -0.605165  -0.102979   0.103228  -0.020695   2.300717   0.072114   3.653604  -0.023715   0.018740  -1.243050  -2.582674   0.376653   0.708125   0.057465   1.217345   0.960824  -2.149294   0.058709  -3.217455   0.058371   0.053737   0.423834   2.359034  -0.881555  -0.378827   0.332495   3.012307  -0.001341  -0.003398  -3.795452  -0.448062  -0.083165   0.238998   0.000068  -0.001212  -1.490159   0.209877   0.342524   2.934509  -0.001075   0.011850  -2.037705   0.422908   0.055945   0.678826  -0.000657   0.005239
 -2.377062   0.926222   3.973248   0.058264   0.469173  -0.636866   0.517614  -0.085822   0.513316   0.397443  -0.895971   0.269427  -0.819152  -0.699809   0.581232   0.262094  -1.163699   0.450249   0.184574   0.041128   4.968713   0.164216   7.215463  -0.043038   0.074395  -1.479442  -4.471339   0.751872   1.440818  -0.470001   2.456866   1.878677  -4.787903   0.135475  -6.283889   0.103878   0.196286   0.114727   4.168642  -1.464533  -0.751549   0.692948   6.382595  -0.002276  -0.006531  -7.355829  -0.867502  -0.187309   0.289534   0.000084  -0.001216  -3.032751   0.428434   0.749280   5.933823  -0.000863   0.021976  -3.929239   0.827125   0.127280   1.290028  -0.001050   0.008892
 -2.377124   0.926326   3.972240  -0.024745   0.639295  -0.988778   0.813846  -0.062531   0.802150   0.686854  -1.251244   0.479726  -1.144757  -1.032217   0.854290   0.392907  -1.642438   1.432893   0.249694   0.137631   7.806238   0.252074  10.559190  -0.055453   0.138442  -1.431205  -5.585267   1.110907   2.130473  -1.384729   3.698174   2.715263  -7.693322   0.210294  -9.146060   0.134658   0.352485  -0.323170   5.289392  -1.826679  -1.103144   1.020609   9.852126  -0.002505  -0.010114 -10.674326  -1.253471  -0.306829   0.344591   0.000128  -0.001238  -4.621963   0.626501   1.152709   8.722893   0.000491   0.027844  -5.693849   1.202638   0.208996   1.855076  -0.001162   0.011068
 -2.377108   0.925914   3.971451  -0.116452   0.754209  -1.331302   1.092836   0.013730   1.095727   0.963645  -1.528987   0.702929  -1.442384  -1.344092   1.109992   0.530821  -2.054298   2.682326   0.305907   0.252454  10.700350   0.325282  13.685574  -0.062435   0.195458  -1.312021  -6.103909   1.456277   2.785536  -2.561882   4.903442   3.442760 -10.661257   0.272833 -11.811412   0.152649   0.502082  -0.749002   5.829685  -2.011740  -1.432986   1.306564  13.377534  -0.002371  -0.014240 -13.770233  -1.608152  -0.438024   0.398583   0.000189  -0.001251  -6.252990   0.800888   1.537843  11.282274   0.002282   0.030284  -7.343797   1.550029   0.297967   2.364275  -0.001076   0.012046
 -2.377034   0.924792   3.970880  -0.208453   0.822746  -1.661990   1.347249   0.136040   1.389620   1.218492  -1.737250   0.932928  -1.717058  -1.636257   1.347976   0.677312  -2.412494   4.082026   0.357318   0.375987  13.572870   0.380136  16.604700  -0.065486   0.240963  -1.186033  -6.206598   1.789966   3.412208  -3.882449   6.071741   4.070848 -13.607776   0.319595 -14.292608   0.160781   0.637746  -1.131699   5.969283  -2.035909  -1.739998   1.554139  16.902580  -0.002170  -0.018576 -16.658484  -1.933384  -0.577773   0.451870   0.000260  -0.001255  -7.915592   0.951714   1.903145  13.626460   0.004056   0.030395  -8.886912   1.871071   0.391795   2.822164  -0.000877   0.012205
 -2.376918   0.922834   3.970510  -0.288264   0.855179  -1.982086   1.566094   0.296856   1.682393   1.445475  -1.884382   1.167364  -1.971696  -1.909892   1.569124   0.832047  -2.729832   5.551081   0.406199   0.500633  16.372135   0.416624  19.328306  -0.065790   0.274954  -1.075773  -6.034060   2.115128   4.018595  -5.265393   7.201561   4.613348 -16.479692   0.350372 -16.601103   0.161437   0.757492  -1.460382   5.846879  -1.892157  -2.022829   1.770374  20.271559  -0.002049  -0.022489 -19.351950  -2.230889  -0.723595   0.505991   0.000338  -0.001256  -9.606348   1.079425   2.250282  15.771270   0.005594   0.029065 -10.329963   2.167668   0.488539   3.235192  -0.000625   0.011850
 -2.376814   0.919516   3.969735  -0.376214   0.818232  -2.036847   1.942367   0.543918   1.613600   1.590781  -1.922978   1.406982  -2.535918  -1.931779   1.622809   0.927889  -3.127833   6.677482   0.386145   0.787841  18.993620   0.447447  22.489659  -0.067926   0.231664  -1.533362  -5.179103   2.384143   4.731829  -6.235803   8.454687   4.795239 -19.033309   0.375373 -19.214320   0.167928   0.735165  -1.563561   5.102349  -1.293934  -2.152079   1.669201  22.267489  -0.000607  -0.022000 -21.888667  -2.371203  -0.937439   0.574924   0.000499  -0.001202 -11.893940   1.385815   2.362193  19.446858   0.009937   0.034264 -11.899334   2.638537   0.583261   3.392392  -0.000462   0.010644
 -2.376722   0.915004   3.968866  -0.468984   0.544287  -2.025844   2.315041   0.920258   1.480501   1.726114  -1.829290   1.580053  -3.075979  -1.939806   1.649119   0.990083  -3.383089   7.605660   0.324872   1.147652  21.359812   0.453876  25.493738  -0.068931   0.223935  -1.739031  -4.379468   2.638429   5.383837  -6.988882   9.619461   4.906598 -21.310631   0.381286 -21.676695   0.167703   0.733344  -1.810505   4.466242  -0.614317  -2.240041   1.458942  23.977920  -0.000161  -0.024142 -24.267317  -2.491313  -1.140059   0.620356   0.000566  -0.001162 -14.181289   1.688760   2.470931  23.061246   0.011749   0.030532 -13.351879   3.080825   0.687714   3.561230  -0.000381   0.009367
 -2.376657   0.909395   3.967981  -0.557334   0.147304  -1.998870   2.670473   1.352596   1.328453   1.849007  -1.654675   1.714887  -3.581156  -1.946697   1.667122   1.018203  -3.535178   8.374363   0.226947   1.543541  23.500869   0.443855  28.327311  -0.068686   0.241376  -1.767982  -3.734038   2.880204   5.989895  -7.596347  10.703653   4.977258 -23.367307   0.374282 -23.977922   0.162538   0.734910  -2.083259   3.993419   0.100988  -2.320661   1.201533  25.558140  -0.000329  -0.026993 -26.489056  -2.597009  -1.332845   0.661916   0.000615  -0.001148 -16.416914   1.955468   2.617055  26.437971   0.011041   0.023020 -14.707397   3.490378   0.798017   3.720375  -0.000358   0.008042
 -2.376624   0.902765   3.967128  -0.639318  -0.296549  -1.967956   3.006057   1.806329   1.167365   1.958457  -1.435083   1.823299  -4.053141  -1.953535   1.682098   1.018744  -3.622314   9.015980   0.100492   1.949637  25.447219   0.423439  30.992050  -0.067520   0.272539  -1.681002  -3.229988   3.110801   6.557209  -8.097531  11.713873   5.018638 -25.239128   0.358998 -26.125392   0.154045   0.735474  -2.346121   3.647895   0.843216  -2.397154   0.920816  27.041063  -0.000751  -0.029354 -28.562868  -2.689497  -1.516881   0.701774   0.000654  -0.001136 -18.592629   2.185464   2.798760  29.566990   0.008873   0.015377 -15.974527   3.869653   0.911507   3.864257  -0.000363   0.006802
